<?xml version="1.0" standalone="no"?>
<!DOCTYPE svg PUBLIC "-//W3C//DTD SVG 20010904//EN"
 "http://www.w3.org/TR/2001/REC-SVG-20010904/DTD/svg10.dtd">
<svg version="1.0" xmlns="http://www.w3.org/2000/svg"
 width="1024.000000pt" height="1024.000000pt" viewBox="0 0 1024.000000 1024.000000"
 preserveAspectRatio="xMidYMid meet">
<metadata>
Created by potrace 1.16, written by Peter Selinger 2001-2019
</metadata>
<g transform="translate(0.000000,1024.000000) scale(0.100000,-0.100000)"
fill="#5856D6" stroke="none">
<path d="M0 5120 l0 -5120 5120 0 5120 0 0 5120 0 5120 -5120 0 -5120 0 0
-5120z m6497 1845 c824 -412 1287 -649 1309 -670 27 -25 34 -40 34 -69 0 -45
-21 -88 -52 -108 -28 -18 -347 -168 -1248 -588 -239 -111 -617 -292 -840 -402
-223 -109 -426 -206 -453 -215 -34 -11 -73 -14 -136 -11 -86 4 -92 6 -237 78
-196 96 -725 351 -1206 580 -213 102 -384 188 -380 191 8 7 186 54 667 179
777 200 1151 298 1207 316 57 18 98 63 98 106 0 44 -57 98 -103 98 -19 0 -419
-99 -888 -221 -1221 -315 -1324 -340 -1354 -329 -72 27 -473 225 -492 243 -31
28 -40 81 -20 122 11 23 35 43 84 70 101 56 2429 1225 2493 1252 47 20 68 23
148 20 l93 -3 1276 -639z m-3390 -1380 c42 -28 53 -72 53 -211 l0 -126 40 -45
c82 -93 81 -206 -3 -299 l-43 -47 43 -231 c23 -127 58 -320 78 -429 42 -228
41 -241 -30 -283 -163 -95 -495 -45 -495 75 0 16 27 171 60 343 32 172 68 360
79 418 l19 105 -35 39 c-46 51 -63 94 -63 161 0 68 16 108 64 158 l36 38 0
135 c0 168 9 189 90 218 24 8 80 -2 107 -19z m620 -314 c164 -76 442 -207 618
-291 659 -313 651 -310 791 -310 135 0 158 9 629 238 417 203 1045 502 1054
502 3 0 6 -122 6 -270 l0 -270 -65 7 c-97 12 -325 8 -410 -7 -92 -15 -263 -71
-345 -112 -299 -150 -553 -449 -647 -762 l-23 -78 -160 6 c-540 23 -1021 127
-1348 292 -236 119 -362 250 -396 412 -10 50 -17 782 -7 782 3 0 139 -62 303
-139z m3097 -659 c318 -87 599 -338 706 -631 48 -132 63 -236 57 -401 -10
-280 -103 -499 -291 -686 -129 -129 -282 -219 -446 -263 -410 -111 -821 23
-1085 352 -284 354 -290 865 -17 1234 149 201 371 348 607 404 112 26 355 21
469 -9z"/>
<path d="M6975 4081 c-16 -10 -160 -150 -320 -310 l-289 -291 -116 114 c-63
63 -125 119 -137 125 -36 18 -97 13 -127 -10 -55 -43 -73 -128 -38 -180 9 -15
94 -103 188 -196 182 -181 206 -197 270 -173 30 11 684 656 735 724 88 118
-43 274 -166 197z"/>
</g>
</svg>
